#!OML:ASF F:\VICON\USERDATA\INSTALL\rory3\rory3.ASF
:FULLY-SPECIFIED
:DEGREES
2839
root 0.191859 18.4958 -1.58335 -189.375 255.878 -174.34
lowerback 2.75033 0.654372 -1.0349
upperback 1.95673 0.830256 0.85064
thorax 0.435967 0.39232 1.43193
lowerneck -10.6809 6.34836 -1.95007
upperneck 19.8236 8.07784 4.29821
head 7.58393 4.04515 2.48065
rclavicle 1.2275e-014 9.93923e-015
rhumerus 407.349 35.9112 -404.163
rradius 57.2411
rwrist 50.5929
rhand -55.5749 -22.6608
rfingers 7.12502
rthumb -27.9299 -50.6036
lclavicle 1.2275e-014 9.93923e-015
lhumerus 49.8589 -3.84448 39.2009
lradius 19.7244
lwrist -51.6792
lhand -53.0817 57.3686
lfingers 7.12502
lthumb -25.544 -274.324
rfemur -2.81143 18.3426 14.2883
rtibia 26.2598
rfoot -19.647 -14.4543
rtoes -7.11294
lfemur -8.49332 -8.3529 -8.92471
ltibia 23.4948
lfoot -14.7786 16.6686
ltoes -9.62733
2840
root 0.193128 18.4919 -1.53932 -188.824 255.704 -174.79
lowerback 2.65386 0.689332 -0.820363
upperback 1.98602 0.881344 0.880278
thorax 0.520902 0.418931 1.34218
lowerneck -10.8169 6.21815 -1.9842
upperneck 19.7173 7.9216 4.25304
head 7.57941 3.96709 2.46027
rclavicle 6.35987e-014 -3.97569e-016
rhumerus 409.403 35.107 -403.176
rradius 56.027
rwrist 50.2336
rhand -55.5735 -22.0216
rfingers 7.12502
rthumb -27.9286 -49.9646
lclavicle 6.35987e-014 -3.97569e-016
lhumerus 50.1836 -3.65738 39.6055
lradius 19.8338
lwrist -51.6211
lhand -52.8993 56.6581
lfingers 7.12502
lthumb -25.3693 -275.01
rfemur -2.78672 18.5215 14.275
rtibia 26.1851
rfoot -19.8022 -14.7336
rtoes -6.84998
lfemur -8.79641 -8.37694 -8.84023
ltibia 22.9794
lfoot -14.1228 16.5318
ltoes -10.5884
2841
root 0.194499 18.4888 -1.49542 -188.752 255.533 -174.756
lowerback 2.61731 0.682479 -0.876638
upperback 2.02177 0.870326 0.972995
thorax 0.576143 0.411469 1.46977
lowerneck -11.1123 6.13315 -2.18086
upperneck 19.7325 7.84321 4.29637
head 7.62916 3.92195 2.51149
rclavicle -3.70858e-014 1.98785e-014
rhumerus 411.657 34.4014 -401.99
rradius 54.8011
rwrist 49.787
rhand -55.4622 -22.214
rfingers 7.12502
rthumb -27.8221 -50.1743
lclavicle -3.70858e-014 1.98785e-014
lhumerus 50.3842 -3.22712 40.2002
lradius 19.9037
lwrist -51.5504
lhand -53.0785 55.6027
lfingers 7.12502
lthumb -25.5409 -276.089
rfemur -2.77562 18.6463 14.1304
rtibia 26.1031
rfoot -19.794 -15.0454
rtoes -7.15173
lfemur -9.09752 -8.69801 -8.91147
ltibia 22.5516
lfoot -13.5154 16.5094
ltoes -10.6341
2842
root 0.194681 18.4849 -1.44251 -188.741 255.452 -174.758
lowerback 2.66161 0.824615 -0.801605
upperback 2.04998 1.06039 0.985738
thorax 0.575292 0.506884 1.43625
lowerneck -11.2984 5.95288 -2.13036
upperneck 19.7402 7.58411 4.32646
head 7.67535 3.80648 2.49825
rclavicle 3.79927e-014 -1.23246e-014
rhumerus 413.473 33.4739 -401.079
rradius 53.4086
rwrist 49.4557
rhand -55.5179 -21.941
rfingers 7.12502
rthumb -27.8754 -49.8926
lclavicle 3.79927e-014 -1.23246e-014
lhumerus 50.7776 -3.20713 40.6616
lradius 20.126
lwrist -51.0921
lhand -53.1489 54.7242
lfingers 7.12502
lthumb -25.6084 -276.978
rfemur -2.69591 18.6885 13.9877
rtibia 26.0462
rfoot -19.7314 -15.2367
rtoes -7.49468
lfemur -9.26165 -9.24197 -9.02654
ltibia 22.1982
lfoot -12.5932 16.7732
ltoes -11.2009
2843
root 0.197599 18.4791 -1.38475 -188.254 255.419 -175.215
lowerback 2.70995 1.22861 -0.292918
upperback 2.03352 1.61049 0.68879
thorax 0.536658 0.789783 0.833666
lowerneck -11.46 5.55283 -1.34244
upperneck 19.789 6.88167 4.29256
head 7.77936 3.52588 2.30554
rclavicle -2.23757e-014 -3.18055e-015
rhumerus 414.177 31.8747 -401.467
rradius 51.7727
rwrist 49.6588
rhand -55.4323 -21.1518
rfingers 7.12502
rthumb -27.7936 -49.1167
lclavicle -2.23757e-014 -3.18055e-015
lhumerus 51.8652 -3.85411 40.9847
lradius 20.3685
lwrist -50.3826
lhand -52.5422 53.3734
lfingers 7.12502
lthumb -25.0272 -278.246
rfemur -2.7009 18.6622 13.914
rtibia 26.0278
rfoot -19.7355 -15.327
rtoes -8.05202
lfemur -9.46872 -9.56721 -8.99485
ltibia 21.8987
lfoot -11.3481 16.6426
ltoes -11.9162
2844
root 0.203079 18.4698 -1.32979 -187.528 255.388 -175.864
lowerback 2.70554 1.1498 -0.111742
upperback 2.09207 1.50605 0.94058
thorax 0.598862 0.736671 0.993255
lowerneck -11.9258 5.56452 -1.82526
upperneck 19.9758 7.00822 4.27268
head 7.90193 3.55023 2.41183
rclavicle 1.25234e-014 3.18055e-015
rhumerus 416.502 31.1536 -400.997
rradius 50.0997
rwrist 50.1099
rhand -54.9289 -20.7781
rfingers 7.12502
rthumb -27.3122 -48.8197
lclavicle 1.25234e-014 3.18055e-015
lhumerus 51.6536 -3.03423 42.1527
lradius 20.5644
lwrist -49.7758
lhand -49.2988 50.1563
lfingers 7.12502
lthumb -21.9159 -281.065
rfemur -2.77357 18.7199 13.8936
rtibia 26.0465
rfoot -19.8424 -15.46
rtoes -8.19732
lfemur -9.78934 -9.8511 -8.85933
ltibia 21.7742
lfoot -9.79975 16.0775
ltoes -12.1967
2845
root 0.207877 18.4593 -1.26887 -187.496 255.36 -175.875
lowerback 2.77522 1.24211 0.0502191
upperback 2.15946 1.63023 1.00427
thorax 0.629456 0.799198 0.964431
lowerneck -12.3815 5.40532 -1.99651
upperneck 20.1063 6.82832 4.29822
head 8.02598 3.45632 2.45206
rclavicle -6.06045e-014 -8.74653e-015
rhumerus 418.469 30.1912 -400.188
rradius 48.5358
rwrist 49.9933
rhand -54.5483 -21.4105
rfingers 7.12502
rthumb -26.9481 -49.5089
lclavicle -6.06045e-014 -8.74653e-015
lhumerus 51.73 -2.96372 42.6558
lradius 21.1316
lwrist -48.1618
lhand -49.9119 48.9924
lfingers 7.12502
lthumb -22.5045 -282.299
rfemur -2.77056 18.8275 13.6981
rtibia 26.133
rfoot -20.0125 -15.5174
rtoes -8.24981
lfemur -10.0562 -10.2835 -8.96563
ltibia 21.9254
lfoot -8.19271 15.3367
ltoes -12.162
